<svg xmlns="http://www.w3.org/2000/svg" id="Capa_1" version="1.1" viewBox="0 0 234.41 234.41"><g id="g9"><path id="path8" d="M206.11 71.48c25.8 13.2 35.8 44.3 22.3 69.6-13.5 25.2-45.3 35-71.1 21.8l-129-65.6c-25.8-13.2-35.8-44.3-22.3-69.6 13.5-25.2 45.3-35 71.1-21.8l129 65.6Z" class="cls-1"/><path id="path9" d="M.01 182.84c0 28.49 23.44 51.57 52.37 51.57 8.56 0 16.63-2.02 23.77-5.6s80.51-41.56 80.51-41.56c1.64-.82 2.76-2.49 2.76-4.42 0-2.04-1.24-3.78-3.02-4.54l-79.22-40.9c-.33-.18-.67-.35-1-.52h-.02c-7.13-3.58-15.21-5.6-23.77-5.6-28.92 0-52.38 23.09-52.38 51.57" class="cls-1"/></g><defs id="defs1"><style id="style1">.cls-1{fill:#000000}</style></defs></svg>