<svg width="1000" height="235" viewBox="0 0 1000 235" fill="none" xmlns="http://www.w3.org/2000/svg">
<path d="M372.757 179.48L312.017 24.0017H286.021L357.37 206.407L358.177 208.392H386.53H387.04L387.275 207.896L459.244 24.0017H433.248L372.757 179.48Z" fill="#050505"/>
<path d="M500.067 74.938H475.808V208.391H500.067V74.938Z" fill="#050505"/>
<path d="M617.083 87.5953C606.722 77.7925 593.072 72.3949 578.182 72.3949C561.368 72.3949 546.23 79.2816 535.621 91.8762C524.95 104.471 519.304 121.595 519.304 141.448C519.304 161.302 525.074 178.736 535.559 191.268C546.23 203.987 561.306 210.998 578.12 210.998C592.328 210.998 606.039 205.104 617.021 194.37V197.721C617.021 199.892 617.021 201.94 617.021 205.352V208.454L641.341 208.64V187.049C641.341 182.334 641.341 176.936 641.341 169.74V24.0017H617.083V87.5332V87.5953ZM607.776 107.573C613.794 115.204 617.083 125.565 617.083 136.857V145.233C617.083 170.05 601.882 188.725 581.718 188.725C570.179 188.725 560.562 184.32 553.861 176.068C547.161 167.692 543.562 155.718 543.562 141.448C543.562 127.178 547.223 115.638 554.172 107.387C560.934 99.3833 570.427 95.1644 581.656 95.1644C592.266 95.1644 601.262 99.4454 607.714 107.573H607.776Z" fill="#050505"/>
<path d="M723.798 72.3948C705.806 72.3948 689.613 79.2815 678.197 91.8761C666.843 104.347 660.639 121.905 660.639 141.448C660.639 160.991 666.905 178.549 678.197 191.02C689.613 203.553 705.806 210.501 723.798 210.501C752.028 210.501 774.363 194.06 781.994 167.568L782.987 164.218L759.349 160.123L758.542 162.729C756.06 170.732 751.842 176.936 745.886 181.217C739.929 185.56 732.484 187.732 723.798 187.732C712.817 187.732 703.449 183.947 696.686 176.75C690.482 170.112 686.573 160.681 685.394 149.39H786.958V141.448C786.958 121.967 780.691 104.347 769.4 91.8761C757.984 79.3435 741.791 72.3948 723.798 72.3948ZM761.644 128.419H686.139C687.938 118.678 691.971 110.551 697.927 104.843C704.565 98.5147 713.499 95.1644 723.736 95.1644C733.973 95.1644 743.032 98.5147 749.732 104.781C755.75 110.489 759.845 118.616 761.644 128.419Z" fill="#050505"/>
<path d="M912.406 74.938H883.742L851.294 121.966L818.535 74.938H794.525H790L792.664 78.5985L837.52 139.896L787.39 208.391H815.992L851.294 158.013L885.417 207.089L886.348 208.391H914.95L865.067 139.896L912.406 74.938Z" fill="#050505"/>
<path d="M996.155 187.049C991.005 188.352 986.104 188.973 981.637 188.973C975.619 188.973 971.586 187.297 969.228 183.761C967.305 180.845 966.374 176.688 966.374 170.67V96.1569H994.852V74.9384H966.374V42.1179H947.637L942.55 74.9384L921.518 74.8143L921.642 96.5912H942.178L942.116 171.725C942.116 179.232 943.605 190.027 950.616 198.651C957.316 206.841 967.243 210.998 980.086 210.998C985.794 210.998 991.626 210.377 997.52 209.136L1000 208.64V186.119L996.155 187.111V187.049Z" fill="#050505"/>
<path d="M487.715 22.2034C480.084 22.2034 473.879 28.4076 473.879 36.0388C473.879 43.6701 480.084 49.8743 487.715 49.8743C495.346 49.8743 501.55 43.6701 501.55 36.0388C501.55 28.4076 495.346 22.2034 487.715 22.2034Z" fill="#050505"/>
<path d="M76.1408 228.833L156.663 187.279C158.302 186.46 159.422 184.789 159.422 182.859C159.422 180.823 158.179 179.08 156.4 178.318L77.1703 137.412C76.8409 137.234 76.5032 137.063 76.1655 136.893H76.1491C69.0168 133.309 60.9374 131.289 52.3803 131.289C23.4558 131.289 0 154.378 0 182.867C0 211.356 23.4476 234.445 52.3803 234.445C60.9374 234.445 69.0168 232.426 76.1491 228.841L76.1408 228.833Z" fill="#050505"/>
<path d="M206.125 71.5133C231.924 84.6978 241.919 115.84 228.452 141.09C214.985 166.34 183.149 176.112 157.343 162.935L28.3189 97.2866C2.52078 84.1022 -7.47436 52.9601 5.99234 27.71C19.459 2.45993 51.2954 -7.3117 77.1018 5.86471L206.125 71.5053V71.5133Z" fill="#050505"/>
</svg>
